<?xml version="1.0" encoding="UTF-8"?>
<svg width="40px" height="15px" viewBox="0 0 40 15" version="1.1" xmlns="http://www.w3.org/2000/svg" xmlns:xlink="http://www.w3.org/1999/xlink">
    <!-- Generator: Sketch 46.2 (44496) - http://www.bohemiancoding.com/sketch -->
    <title>CCV</title>
    <desc>Created with Sketch.</desc>
    <defs></defs>
    <g id="Page-1" stroke="none" stroke-width="1" fill="none" fill-rule="evenodd">
        <path d="M6.25890445,14.8464751 C7.76550332,14.8464751 9.03790523,14.4583679 10.0761484,13.682142 C11.1143915,12.905916 11.7514113,11.8660509 11.9872267,10.5625154 L10.1891427,10.5625154 C9.9664281,11.3813191 9.50299214,12.0281643 8.79882093,12.5030705 C8.09464972,12.9779767 7.24801936,13.2154262 6.25890445,13.2154262 C4.89641503,13.2154262 3.81561032,12.6946748 3.01645787,11.6531565 C2.21730543,10.6116381 1.8177352,9.20331683 1.8177352,7.42815033 C1.8177352,5.64643341 2.21566785,4.23483694 3.01154507,3.19331859 C3.8074223,2.15180025 4.88658944,1.63104888 6.24907885,1.63104888 C7.2250929,1.63104888 8.06681051,1.8979749 8.77425694,2.43183493 C9.48170337,2.96569496 9.95332724,3.69114419 10.1891427,4.60820437 L11.9872267,4.60820437 C11.777613,3.23916453 11.1422308,2.12888332 10.0810612,1.27732744 C9.01989153,0.425771555 7.74257686,0 6.24907885,0 C4.32325247,0 2.80030037,0.664858659 1.68017686,1.99459592 C0.560053353,3.32433319 0,5.13549988 0,7.42815033 C0,9.71425036 0.561690936,11.5221419 1.68508966,12.8518791 C2.80848838,14.1816164 4.33307806,14.8464751 6.25890445,14.8464751 Z M20.4470646,14.8464751 C21.9536635,14.8464751 23.2260654,14.4583679 24.2643085,13.682142 C25.3025517,12.905916 25.9395714,11.8660509 26.1753869,10.5625154 L24.3773029,10.5625154 C24.1545883,11.3813191 23.6911523,12.0281643 22.9869811,12.5030705 C22.2828099,12.9779767 21.4361795,13.2154262 20.4470646,13.2154262 C19.0845752,13.2154262 18.0037705,12.6946748 17.204618,11.6531565 C16.4054656,10.6116381 16.0058954,9.20331683 16.0058954,7.42815033 C16.0058954,5.64643341 16.403828,4.23483694 17.1997052,3.19331859 C17.9955825,2.15180025 19.0747496,1.63104888 20.437239,1.63104888 C21.4132531,1.63104888 22.2549707,1.8979749 22.9624171,2.43183493 C23.6698635,2.96569496 24.1414874,3.69114419 24.3773029,4.60820437 L26.1753869,4.60820437 C25.9657731,3.23916453 25.330391,2.12888332 24.2692213,1.27732744 C23.2080517,0.425771555 21.930737,0 20.437239,0 C18.5114126,0 16.9884605,0.664858659 15.868337,1.99459592 C14.7482135,3.32433319 14.1881602,5.13549988 14.1881602,7.42815033 C14.1881602,9.71425036 14.7498511,11.5221419 15.8732498,12.8518791 C16.9966485,14.1816164 18.5212382,14.8464751 20.4470646,14.8464751 Z M34.7727831,14.5124048 L40,0.334070253 L38.1429624,0.334070253 L33.9769099,12.223041 L33.8197003,12.223041 L29.6536478,0.334070253 L27.7966102,0.334070253 L33.0238271,14.5124048 L34.7727831,14.5124048 Z" id="CCV" fill="#EC0000"></path>
    </g>
</svg>