<?xml version="1.0" encoding="UTF-8"?>
<svg width="35px" height="35px" viewBox="0 0 35 35" version="1.1" xmlns="http://www.w3.org/2000/svg" xmlns:xlink="http://www.w3.org/1999/xlink">
    <!-- Generator: Sketch 44.1 (41455) - http://www.bohemiancoding.com/sketch -->
    <title>Group</title>
    <desc>Created with Sketch.</desc>
    <defs></defs>
    <g id="PETICIÓN-NORMA-43" stroke="none" stroke-width="1" fill="none" fill-rule="evenodd">
        <g id="06_PETICION-DE-NORMA-43" transform="translate(-322.000000, -347.000000)" fill-rule="nonzero" fill="#EC0000">
            <g id="Group-5" transform="translate(63.000000, 325.000000)">
                <g id="Group-4">
                    <g id="Group" transform="translate(259.000000, 22.000000)">
                        <path d="M31.4086111,3.59138889 L25.3613889,3.59138889 L25.3613889,1.1725 C25.3613889,0.838055556 25.0911111,0.567777778 24.7566667,0.567777778 C24.4222222,0.567777778 24.1519444,0.838055556 24.1519444,1.1725 L24.1519444,6.615 C24.1519444,6.94944444 24.4222222,7.21972222 24.7566667,7.21972222 C25.0911111,7.21972222 25.3613889,6.94944444 25.3613889,6.615 L25.3613889,4.80083333 L31.4086111,4.80083333 C32.41,4.80083333 33.2227778,5.61555556 33.2227778,6.615 L33.2227778,12.0575 L1.77722222,12.0575 L1.77722222,6.615 C1.77722222,5.61361111 2.59194444,4.80083333 3.59138889,4.80083333 L8.42916667,4.80083333 L8.42916667,3.59138889 L3.59138889,3.59138889 C1.925,3.59138889 0.567777778,4.94861111 0.567777778,6.615 L0.567777778,31.4086111 C0.567777778,33.075 1.925,34.4322222 3.59138889,34.4322222 L31.4105556,34.4322222 C33.0769444,34.4322222 34.4341667,33.075 34.4341667,31.4086111 L34.4341667,6.615 C34.4322222,4.94666667 33.0769444,3.59138889 31.4086111,3.59138889 Z M33.2227778,31.4086111 C33.2227778,32.41 32.4080556,33.2227778 31.4086111,33.2227778 L3.59138889,33.2227778 C2.59,33.2227778 1.77722222,32.4080556 1.77722222,31.4086111 L1.77722222,13.2669444 L33.2247222,13.2669444 L33.2247222,31.4086111 L33.2227778,31.4086111 Z" id="Shape"></path>
                        <path d="M10.2433333,7.21972222 C10.5777778,7.21972222 10.8480556,6.94944444 10.8480556,6.615 L10.8480556,4.80083333 L22.9425,4.80083333 L22.9425,3.59138889 L10.8480556,3.59138889 L10.8480556,1.1725 C10.8480556,0.838055556 10.5777778,0.567777778 10.2433333,0.567777778 C9.90888889,0.567777778 9.63861111,0.838055556 9.63861111,1.1725 L9.63861111,6.615 C9.63861111,6.94944444 9.90888889,7.21972222 10.2433333,7.21972222 Z" id="Shape"></path>
                    </g>
                </g>
            </g>
        </g>
    </g>
</svg>