<?xml version="1.0" encoding="UTF-8"?>
<svg width="40px" height="33px" viewBox="0 0 40 33" version="1.1" xmlns="http://www.w3.org/2000/svg" xmlns:xlink="http://www.w3.org/1999/xlink">
    <!-- Generator: Sketch 47.1 (45422) - http://www.bohemiancoding.com/sketch -->
    <title>Page 1</title>
    <desc>Created with Sketch.</desc>
    <defs>
        <path d="M27.811,0.3868 C28.07,0.1298 28.408,-0.0002 28.747,-0.0002 C29.086,-0.0002 29.424,0.1298 29.683,0.3868 L39.612,10.3168 C40.129,10.8338 40.129,11.6718 39.612,12.1878 L19.899,31.9028 C19.641,32.1598 19.302,32.2908 18.962,32.2908 C18.624,32.2908 18.285,32.1598 18.027,31.9028 L8.099,21.9728 C7.58,21.4548 7.58,20.6168 8.099,20.1008 L9.521,18.6778 L6.507,18.1558 L1.323,18.1558 C0.592,18.1558 0,17.5638 0,16.8318 L0,7.5658 C0,6.8348 0.592,6.2418 1.323,6.2418 L6.44,6.2418 L16.923,3.3448 C18.758,2.6508 20.965,2.8828 22.718,3.9958 L29.578,8.3618 C30.149,8.7268 30.355,9.4638 30.051,10.0708 L29.303,11.5658 C28.917,12.3378 28.277,12.9138 27.532,13.2518 C28.171,14.0648 28.536,15.0478 28.536,16.0978 C28.536,17.3348 28.053,18.4988 27.178,19.3748 C26.303,20.2508 25.138,20.7318 23.903,20.7318 C22.663,20.7318 21.5,20.2508 20.626,19.3748 C19.751,18.4988 19.269,17.3348 19.269,16.0978 C19.269,14.8598 19.751,13.6958 20.626,12.8208 C20.852,12.5958 21.1,12.4008 21.365,12.2348 L20.124,11.8208 L19.874,12.0698 L14.771,17.1708 L10.907,21.0368 L18.962,29.0938 L36.805,11.2528 L28.748,3.1948 L27.372,4.5708 L25.5,2.6978 L27.811,0.3868 Z M10.418,16.1448 C10.548,16.1638 10.678,16.1728 10.809,16.1728 C11.574,16.1728 12.339,15.8608 12.9,15.2988 L14.969,13.2298 C14.252,12.9988 13.586,12.6188 13.038,12.0688 L14.909,10.1968 C15.734,11.0238 17.174,11.0238 18.002,10.1968 L18.829,9.3698 C19.183,9.0168 19.709,8.8908 20.184,9.0508 L25.704,10.8908 C26.18,11.0488 26.71,10.8298 26.936,10.3818 L27.149,9.9548 L21.296,6.2308 C20.24,5.5598 18.913,5.4178 17.741,5.8598 L7.944,8.5728 L7.944,15.7178 L10.418,16.1448 Z M2.648,15.5088 L5.295,15.5088 L5.295,8.8898 L2.648,8.8898 L2.648,15.5088 Z M22.498,17.5028 C22.872,17.8778 23.387,18.0658 23.902,18.0658 C24.417,18.0648 24.93,17.8778 25.306,17.5028 C25.681,17.1278 25.889,16.6288 25.889,16.0978 C25.889,15.5688 25.681,15.0688 25.306,14.6948 C24.93,14.3198 24.432,14.1118 23.903,14.1118 C23.371,14.1118 22.872,14.3178 22.498,14.6928 C22.123,15.0688 21.917,15.5688 21.917,16.0978 C21.917,16.6288 22.123,17.1278 22.498,17.5028 Z" id="path-1"></path>
    </defs>
    <g id="Page-1" stroke="none" stroke-width="1" fill="none" fill-rule="evenodd">
        <g id="UI-Kit-DESIGN-ELEMENTS---Icons" transform="translate(-879.000000, -803.000000)">
            <g id="Page-1" transform="translate(879.000000, 803.000000)">
                <mask id="mask-2" fill="white">
                    <use xlink:href="#path-1"></use>
                </mask>
                <g id="Clip-2"></g>
                <polygon id="Fill-1" fill="#EC0000" mask="url(#mask-2)" points="-5 37.2898 45 37.2898 45 -5.0002 -5 -5.0002"></polygon>
            </g>
        </g>
    </g>
</svg>