<?xml version="1.0" encoding="UTF-8"?>
<svg width="16px" height="16px" viewBox="0 0 16 16" version="1.1" xmlns="http://www.w3.org/2000/svg" xmlns:xlink="http://www.w3.org/1999/xlink">
    <!-- Generator: Sketch 46.2 (44496) - http://www.bohemiancoding.com/sketch -->
    <title>Estructura</title>
    <desc>Created with Sketch.</desc>
    <defs></defs>
    <g id="Page-1" stroke="none" stroke-width="1" fill="none" fill-rule="evenodd">
        <g id="Estructura">
            <path d="M10.3157895,2.73684211 L9.47368421,7.36842105" id="Line-2" stroke="#F40001" stroke-linecap="square"></path>
            <path d="M7.78947368,9.05263158 L2.73684211,10.7368421" id="Line-4" stroke="#F40001" stroke-linecap="square"></path>
            <path d="M1.47368421,12.6315789 C0.659790895,12.6315789 0,11.9717881 0,11.1578947 C0,10.3440014 0.659790895,9.68421053 1.47368421,9.68421053 C2.28757753,9.68421053 2.94736842,10.3440014 2.94736842,11.1578947 C2.94736842,11.9717881 2.28757753,12.6315789 1.47368421,12.6315789 Z M1.47368421,11.8947368 C1.88063087,11.8947368 2.21052632,11.5648414 2.21052632,11.1578947 C2.21052632,10.7509481 1.88063087,10.4210526 1.47368421,10.4210526 C1.06673755,10.4210526 0.736842105,10.7509481 0.736842105,11.1578947 C0.736842105,11.5648414 1.06673755,11.8947368 1.47368421,11.8947368 Z" id="Combined-Shape" fill="#EC0000"></path>
            <path d="M10.7368421,2.94736842 C9.92294879,2.94736842 9.26315789,2.28757753 9.26315789,1.47368421 C9.26315789,0.659790895 9.92294879,0 10.7368421,0 C11.5507354,0 12.2105263,0.659790895 12.2105263,1.47368421 C12.2105263,2.28757753 11.5507354,2.94736842 10.7368421,2.94736842 Z M10.7368421,2.21052632 C11.1437888,2.21052632 11.4736842,1.88063087 11.4736842,1.47368421 C11.4736842,1.06673755 11.1437888,0.736842105 10.7368421,0.736842105 C10.3298954,0.736842105 10,1.06673755 10,1.47368421 C10,1.88063087 10.3298954,2.21052632 10.7368421,2.21052632 Z" id="Combined-Shape-Copy-4" fill="#EC0000"></path>
            <path d="M14.5263158,15.5789474 C13.7124225,15.5789474 13.0526316,14.9191565 13.0526316,14.1052632 C13.0526316,13.2913698 13.7124225,12.6315789 14.5263158,12.6315789 C15.3402091,12.6315789 16,13.2913698 16,14.1052632 C16,14.9191565 15.3402091,15.5789474 14.5263158,15.5789474 Z M14.5263158,14.8421053 C14.9332624,14.8421053 15.2631579,14.5122098 15.2631579,14.1052632 C15.2631579,13.6983165 14.9332624,13.3684211 14.5263158,13.3684211 C14.1193691,13.3684211 13.7894737,13.6983165 13.7894737,14.1052632 C13.7894737,14.5122098 14.1193691,14.8421053 14.5263158,14.8421053 Z" id="Combined-Shape-Copy-3" fill="#EC0000"></path>
            <path d="M9.05263158,10.1052632 C8.23873826,10.1052632 7.57894737,9.44547226 7.57894737,8.63157895 C7.57894737,7.81768563 8.23873826,7.15789474 9.05263158,7.15789474 C9.86652489,7.15789474 10.5263158,7.81768563 10.5263158,8.63157895 C10.5263158,9.44547226 9.86652489,10.1052632 9.05263158,10.1052632 Z M9.05263158,9.36842105 C9.45957824,9.36842105 9.78947368,9.03852561 9.78947368,8.63157895 C9.78947368,8.22463229 9.45957824,7.89473684 9.05263158,7.89473684 C8.64568492,7.89473684 8.31578947,8.22463229 8.31578947,8.63157895 C8.31578947,9.03852561 8.64568492,9.36842105 9.05263158,9.36842105 Z" id="Combined-Shape-Copy-5" fill="#EC0000"></path>
            <path d="M9.89473684,9.47368421 L13.5086643,13.0876117" id="Line-3" stroke="#F40001" stroke-linecap="square"></path>
        </g>
    </g>
</svg>