<?xml version="1.0" encoding="UTF-8"?>
<svg width="25px" height="24px" viewBox="0 0 25 24" version="1.1" xmlns="http://www.w3.org/2000/svg" xmlns:xlink="http://www.w3.org/1999/xlink">
    <!-- Generator: Sketch 44.1 (41455) - http://www.bohemiancoding.com/sketch -->
    <title>ICONO SIMBOLO</title>
    <desc>Created with Sketch.</desc>
    <defs></defs>
    <g id="Symbols" stroke="none" stroke-width="1" fill="none" fill-rule="evenodd">
        <g id="ICONO-SIMBOLO">
            <g id="Page-1" transform="translate(2.000000, 2.000000)">
                <path d="M20,10 C20,15.5229167 15.5233333,20 10,20 C4.47666667,20 0,15.5229167 0,10 C0,4.47708333 4.47666667,0 10,0 C15.5233333,0 20,4.47708333 20,10 Z" id="Stroke-1" stroke="#EC0000" stroke-linecap="round"></path>
                <path d="M9.5215,15.1222917 C9.43191667,15.1222917 9.37233333,15.0622917 9.37233333,14.9727083 L9.37233333,8.11354167 C9.37233333,8.02395833 9.43191667,7.96395833 9.5215,7.96395833 L10.47775,7.96395833 C10.56775,7.96395833 10.6273333,8.02395833 10.6273333,8.11354167 L10.6273333,14.9727083 C10.6273333,15.0622917 10.56775,15.1222917 10.47775,15.1222917 L9.5215,15.1222917 Z M9.4915,6.350625 C9.4015,6.350625 9.34233333,6.290625 9.34233333,6.20104167 L9.34233333,5.11020833 C9.34233333,5.02020833 9.4015,4.960625 9.4915,4.960625 L10.50775,4.960625 C10.5973333,4.960625 10.65775,5.02020833 10.65775,5.11020833 L10.65775,6.20104167 C10.65775,6.290625 10.5973333,6.350625 10.50775,6.350625 L9.4915,6.350625 Z" id="Fill-3" fill="#EC0000"></path>
            </g>
        </g>
    </g>
</svg>