<?xml version="1.0" encoding="UTF-8"?>
<svg width="45px" height="39px" viewBox="0 0 45 39" version="1.1" xmlns="http://www.w3.org/2000/svg" xmlns:xlink="http://www.w3.org/1999/xlink">
    <!-- Generator: Sketch 44.1 (41455) - http://www.bohemiancoding.com/sketch -->
    <title>Group</title>
    <desc>Created with Sketch.</desc>
    <defs></defs>
    <g id="Symbols" stroke="none" stroke-width="1" fill="none" fill-rule="evenodd">
        <g id="LIGHTBOX-&quot;ALERT&quot;-DOBLE" transform="translate(-211.000000, -28.000000)" fill-rule="nonzero" fill="#EC0000">
            <g id="Group" transform="translate(211.000000, 28.000000)">
                <path d="M43.9546954,30.3588595 L27.423404,2.88259373 C26.3419176,1.13686413 24.487941,0.0742461185 22.4022173,0.0742461185 C20.3164937,0.0742461185 18.4625171,1.13686413 17.3810307,2.88259373 L0.849739279,30.3588595 C-0.231747076,32.1045891 -0.231747076,34.3057264 0.772490253,36.051456 C1.85397661,37.8730869 3.70795322,38.9357049 5.7936769,38.9357049 L38.9335088,38.9357049 C41.0192325,38.9357049 42.9504581,37.8730869 43.9546954,36.051456 C45.0361818,34.3057264 45.0361818,32.1045891 43.9546954,30.3588595 Z M42.0234698,34.9129367 C41.4054776,35.9755547 40.2467422,36.6586663 39.0107578,36.6586663 L5.7936769,36.6586663 C4.55769249,36.6586663 3.39895711,36.051456 2.78096491,34.9129367 C2.16297271,33.8503187 2.16297271,32.5599968 2.78096491,31.4973788 L19.3895054,4.02111303 C20.0074976,2.95849501 21.1662329,2.35128472 22.4022173,2.35128472 C23.6382018,2.35128472 24.7969371,2.95849501 25.4149293,4.02111303 L42.0234698,31.4973788 C42.641462,32.5599968 42.641462,33.8503187 42.0234698,34.9129367 Z" id="Shape"></path>
                <path d="M22.4022173,32.2563917 C23.2519566,32.2563917 23.9471979,31.5732801 23.9471979,30.738366 L23.9471979,18.5941601 C23.9471979,17.7592459 23.2519566,17.0761343 22.4022173,17.0761343 C21.5524781,17.0761343 20.8572368,17.7592459 20.8572368,18.5941601 L20.8572368,30.738366 C20.8572368,31.5732801 21.5524781,32.2563917 22.4022173,32.2563917 Z" id="Shape"></path>
                <path d="M22.4022173,14.343688 C23.2519566,14.343688 23.9471979,13.6605764 23.9471979,12.8256623 L23.9471979,12.0666494 C23.9471979,11.2317353 23.2519566,10.5486237 22.4022173,10.5486237 C21.5524781,10.5486237 20.8572368,11.2317353 20.8572368,12.0666494 L20.8572368,12.8256623 C20.8572368,13.7364777 21.5524781,14.343688 22.4022173,14.343688 Z" id="Shape"></path>
            </g>
        </g>
    </g>
</svg>