<?xml version="1.0" encoding="UTF-8"?>
<svg width="27px" height="23px" viewBox="0 0 27 23" version="1.1" xmlns="http://www.w3.org/2000/svg" xmlns:xlink="http://www.w3.org/1999/xlink">
    <!-- Generator: Sketch 44.1 (41455) - http://www.bohemiancoding.com/sketch -->
    <title>Group</title>
    <desc>Created with Sketch.</desc>
    <defs>
        <polygon id="path-1" points="0.0031640625 22.9967606 27 22.9967606 27 0.0463239437 0.0031640625 0.0463239437"></polygon>
    </defs>
    <g id="Symbols" stroke="none" stroke-width="1" fill="none" fill-rule="evenodd">
        <g id="BOTON-IMPRIMIR-MODERNO-Copy">
            <g id="Group">
                <g id="Group-3">
                    <mask id="mask-2" fill="white">
                        <use xlink:href="#path-1"></use>
                    </mask>
                    <g id="Clip-2"></g>
                    <path d="M25.8549785,14.82377 C25.8549785,15.2510516 25.5154219,15.5987512 25.098082,15.5987512 L20.0575195,15.5987512 L20.0575195,14.1081784 L21.1019238,14.1081784 C21.4180664,14.1081784 21.6744082,13.84573 21.6744082,13.5220023 C21.6744082,13.1983286 21.4180664,12.9358803 21.1019238,12.9358803 L5.89807617,12.9358803 C5.58193359,12.9358803 5.3255918,13.1983286 5.3255918,13.5220023 C5.3255918,13.84573 5.58193359,14.1081784 5.89807617,14.1081784 L6.94248047,14.1081784 L6.94248047,15.5987512 L1.90191797,15.5987512 C1.48457812,15.5987512 1.14502148,15.2510516 1.14502148,14.82377 L1.14502148,5.49219484 C1.14502148,5.06485915 1.48457812,4.71721362 1.90191797,4.71721362 L4.43179687,4.71721362 L4.43179687,6.94389437 C4.43179687,7.26756808 4.68813867,7.53001643 5.00433398,7.53001643 L21.9957187,7.53001643 C22.3118613,7.53001643 22.5682559,7.26756808 22.5682559,6.94389437 L22.5682559,4.71721362 L25.0981348,4.71721362 C25.5154746,4.71721362 25.8550312,5.06485915 25.8550312,5.49219484 L25.8550312,14.82377 L25.8549785,14.82377 Z M8.08750195,21.8277019 L18.912498,21.8277019 L18.912498,14.1081784 L8.08750195,14.1081784 L8.08750195,21.8277019 Z M5.57681836,6.3577723 L6.94248047,6.3577723 L6.94248047,4.71726761 L5.57681836,4.71726761 L5.57681836,6.3577723 Z M8.08750195,6.3577723 L18.912498,6.3577723 L18.912498,1.21862207 L8.08750195,1.21862207 L8.08750195,6.3577723 Z M20.0574668,6.35766432 L21.4231289,6.35766432 L21.4231289,4.71721362 L20.0574668,4.71721362 L20.0574668,6.35766432 Z M25.098082,3.54491549 L20.0575195,3.54491549 L20.0575195,0.6325 C20.0575195,0.308826291 19.801125,0.0463239437 19.4849824,0.0463239437 L7.51501758,0.0463239437 C7.198875,0.0463239437 6.94248047,0.308826291 6.94248047,0.6325 L6.94248047,3.54496948 L1.90191797,3.54496948 C0.853189453,3.54491549 0,4.41848357 0,5.49219484 L0,14.82377 C0,15.8974812 0.853189453,16.7710493 1.90191797,16.7710493 L6.94248047,16.7710493 L6.94248047,22.4138779 C6.94248047,22.7375516 7.198875,23 7.51501758,23 L19.4849824,23 C19.801125,23 20.0575195,22.7375516 20.0575195,22.4138779 L20.0575195,16.7710493 L25.098082,16.7710493 C26.1467578,16.7710493 27,15.8975352 27,14.82377 L27,5.49219484 C27,4.41848357 26.1467578,3.54491549 25.098082,3.54491549 L25.098082,3.54491549 Z" id="Fill-1" fill="#FF0000" mask="url(#mask-2)"></path>
                </g>
            </g>
        </g>
    </g>
</svg>