<?xml version="1.0" encoding="UTF-8"?>
<svg width="18px" height="16px" viewBox="0 0 18 16" version="1.1" xmlns="http://www.w3.org/2000/svg" xmlns:xlink="http://www.w3.org/1999/xlink">
    <!-- Generator: Sketch 46.2 (44496) - http://www.bohemiancoding.com/sketch -->
    <title>Group 2</title>
    <desc>Created with Sketch.</desc>
    <defs></defs>
    <g id="Page-1" stroke="none" stroke-width="1" fill="none" fill-rule="evenodd">
        <g id="1.-EMBARGOS" transform="translate(-63.000000, -489.000000)">
            <g id="Group-7" transform="translate(63.000000, 486.000000)">
                <g id="Group-6">
                    <g id="Group-3">
                        <g id="Group-2" transform="translate(0.000000, 3.000000)">
                            <path d="M9,10.8463077 C8.32123077,10.8463077 7.76923077,11.3983077 7.76923077,12.0770769 C7.76923077,12.7558462 8.32123077,13.3078462 9,13.3078462 C9.67876923,13.3078462 10.2307692,12.7558462 10.2307692,12.0770769 C10.2307692,11.3983077 9.67876923,10.8463077 9,10.8463077 L9,10.8463077 Z M9,9.61553846 C10.3575385,9.61553846 11.4615385,10.7195385 11.4615385,12.0770769 C11.4615385,13.4346154 10.3575385,14.5386154 9,14.5386154 C7.64246154,14.5386154 6.53846154,13.4346154 6.53846154,12.0770769 C6.53846154,10.7195385 7.64246154,9.61553846 9,9.61553846 L9,9.61553846 Z M8.38461538,4.89907692 L8.38461538,-1 L9.61538462,-1 L9.61538462,4.89907692 L11.6418462,2.87261538 L12.512,3.74276923 L9.43507692,6.81969231 C9.19446154,7.06030769 8.80553846,7.06030769 8.56492308,6.81969231 L5.488,3.74276923 L6.35815385,2.87261538 L8.38461538,4.89907692 Z M16.3846154,15.7693846 C16.3846154,16.1090769 16.1095385,16.3847692 15.7692308,16.3847692 L2.23076923,16.3847692 C1.89046154,16.3847692 1.61538462,16.1090769 1.61538462,15.7693846 L1.61538462,8.38476923 C1.61538462,8.04507692 1.89046154,7.76938462 2.23076923,7.76938462 L7.13476923,7.76938462 L7.13476923,9.00015385 L2.84615385,9.00015385 L2.84615385,15.154 L15.1538462,15.154 L15.1538462,9.00015385 L10.8849231,9.00015385 L10.8849231,7.76938462 L15.7692308,7.76938462 C16.1095385,7.76938462 16.3846154,8.04507692 16.3846154,8.38476923 L16.3846154,15.7693846 Z" id="Fill-2" fill="#EC0000" transform="translate(9.000000, 7.692385) rotate(90.000000) translate(-9.000000, -7.692385) "></path>
                            <rect id="Rectangle-2" fill="#FFFFFF" x="1.84615385" y="4.92307692" width="5.53846154" height="5.53846154"></rect>
                        </g>
                    </g>
                </g>
            </g>
        </g>
    </g>
</svg>