<?xml version="1.0" encoding="UTF-8"?>
<svg width="20px" height="21px" viewBox="0 0 20 21" version="1.1" xmlns="http://www.w3.org/2000/svg" xmlns:xlink="http://www.w3.org/1999/xlink">
    <!-- Generator: Sketch 46.2 (44496) - http://www.bohemiancoding.com/sketch -->
    <title>liquidaciones</title>
    <desc>Created with Sketch.</desc>
    <defs></defs>
    <g id="Page-1" stroke="none" stroke-width="1" fill="none" fill-rule="evenodd">
        <g id="liquidaciones" transform="translate(0.000000, 1.000000)">
            <path d="M6.80812585,18.830805 L5.17313022,18.5070021 L5.17313022,13.0965856 L11.647503,11.0424919 C12.4216983,10.7076616 13.2991197,10.8149276 13.996333,11.323188 L17.8638106,14.1431809 L17.7229683,14.4659813 C17.5742528,14.8058241 17.2234592,14.9712343 16.909407,14.8519384 L13.2615035,13.458483 C12.9474513,13.3381847 12.6001569,13.4324184 12.3665861,13.7000821 L11.819838,14.3266358 C11.2730898,14.9531895 10.3213107,14.952187 9.77631213,14.3266358 L8.53934915,15.7441509 C8.90151512,16.1601826 9.34153802,16.447896 9.815678,16.623331 L8.44837026,18.1902165 C8.01447094,18.688452 7.39511465,18.9270437 6.80812585,18.830805 L6.80812585,18.830805 Z M1,18.5017737 L4,18.5017737 L4,13.0017737 L1,13.0017737 L1,18.5017737 Z M9.3670309,19.0164352 L12.6024259,15.7818797 L12.76025,15.6232161 L13.5476918,15.8859765 C13.3797937,15.9917522 17.8635105,17.0461519 17.4588763,16.5307049 C17.9306697,16.3166349 18.336983,15.9514567 18.5821141,15.462034 L19.0555865,14.5142496 C19.2486692,14.1289236 19.1177088,13.6613276 18.7558885,13.4304679 L14.4056507,10.6618294 C13.2941657,9.95581819 11.8947357,9.80890742 10.7312024,10.2488003 L4.08328,12.0856047 L0.839490132,12.0856047 C0.375252089,12.0856047 0,12.4616962 0,12.9250948 L0,18.8015257 C0,19.2649243 0.375252089,19.6410159 0.839490132,19.6410159 L4.126094,19.6410159 L6.03761303,19.971775 L9.3670309,19.0164352 Z" id="Fill-14" fill="#EC0000" transform="translate(9.572256, 14.985887) scale(1, -1) translate(-9.572256, -14.985887) "></path>
            <path d="M20,2.101 C18.942,0.818 17.341,0 15.548,0 C12.91,0 10.686,1.772 10,4.19 L17.38,4.19 M20,9.766 C18.942,11.049 17.341,11.867 15.548,11.867 C12.91,11.867 10.686,10.095 10,7.677 L17.38,7.677" id="Stroke-4" stroke="#EC0000" stroke-linejoin="round"></path>
        </g>
    </g>
</svg>