<?xml version="1.0" encoding="UTF-8"?>
<svg width="16px" height="16px" viewBox="0 0 16 16" version="1.1" xmlns="http://www.w3.org/2000/svg" xmlns:xlink="http://www.w3.org/1999/xlink">
    <!-- Generator: Sketch 46.2 (44496) - http://www.bohemiancoding.com/sketch -->
    <title>Lapiz</title>
    <desc>Created with Sketch.</desc>
    <defs>
        <polygon id="path-1" points="0 16 16 16 16 0 0 0"></polygon>
    </defs>
    <g id="Page-1" stroke="none" stroke-width="1" fill="none" fill-rule="evenodd">
        <g id="Lapiz">
            <g id="Page-1">
                <mask id="mask-2" fill="white">
                    <use xlink:href="#path-1"></use>
                </mask>
                <g id="Clip-2"></g>
                <path d="M1.545024,4.170944 L4.170944,1.545024 L5.472704,2.846784 L2.846784,5.472704 L1.545024,4.170944 Z M15.554624,11.317184 C15.538624,11.172544 15.473984,11.037504 15.371584,10.935104 L8.154944,3.718464 L7.249984,4.623424 L14.307264,11.681344 L14.635584,14.635584 L11.681344,14.307264 L3.751744,6.377664 L6.830144,3.299264 C7.080384,3.049664 7.080384,2.644544 6.830144,2.394304 L4.623424,0.187584 C4.373184,-0.062656 3.968704,-0.062656 3.718464,0.187584 L0.187584,3.718464 C-0.062656,3.968704 -0.062656,4.373184 0.187584,4.623424 L2.394304,6.830144 L10.935104,15.370944 C11.038144,15.473984 11.172544,15.538624 11.317184,15.554624 L15.289664,15.996224 C15.312704,15.998784 15.336384,16.000064 15.360064,16.000064 C15.529024,16.000064 15.691584,15.932864 15.812544,15.812544 C15.950144,15.674944 16.017344,15.482304 15.996224,15.289664 L15.554624,11.317184 Z" id="Fill-1" fill="#EC0000" mask="url(#mask-2)"></path>
            </g>
            <path d="M0.64,15.5 L15.36,15.5" id="Line-5" stroke="#EC0000" stroke-linecap="square"></path>
        </g>
    </g>
</svg>