<?xml version="1.0" encoding="UTF-8"?>
<svg width="20px" height="10px" viewBox="0 0 20 10" version="1.1" xmlns="http://www.w3.org/2000/svg" xmlns:xlink="http://www.w3.org/1999/xlink">
    <!-- Generator: Sketch 46.2 (44496) - http://www.bohemiancoding.com/sketch -->
    <title>Consultar</title>
    <desc>Created with Sketch.</desc>
    <defs></defs>
    <g id="Page-1" stroke="none" stroke-width="1" fill="none" fill-rule="evenodd">
        <g id="Consultar" fill-rule="nonzero" fill="#EC0000">
            <g id="Group">
                <path d="M10.0014952,0 C5.82933932,0 2.15655351,1.87981511 0.0785299587,4.74576277 C-0.0261766529,4.8844376 -0.0261766529,5.1001541 0.0785299587,5.24653307 C2.15655351,8.10477659 5.82933932,10 10.0014952,10 C14.1655966,10 17.8464367,8.10477659 19.9244602,5.24653307 C20.0211125,5.10785824 20.0291669,4.89214174 19.9244602,4.74576277 C17.8464367,1.87981511 14.1655966,0 10.0014952,0 Z M10.0014952,1.08628661 C12.2647688,1.08628661 14.0931073,2.83513107 14.0931073,4.99999999 C14.0931073,7.16486914 12.2647688,8.91371357 10.0014952,8.91371357 C7.73016714,8.91371357 5.90988293,7.16486914 5.90988293,4.99999999 C5.90988293,2.83513107 7.73016714,1.08628661 10.0014952,1.08628661 Z M6.87640541,1.27889061 C5.73268702,2.15716488 4.99974083,3.49768886 4.99974083,4.99999999 C4.99974083,6.50231135 5.73268702,7.84283522 6.87640541,8.72110951 C4.46009899,8.0893683 2.40623849,6.75654857 1.03699819,4.99999999 C2.40623849,3.24345141 4.46009899,1.91063175 6.87640541,1.27889061 Z M13.1265848,1.27889061 C15.5428913,1.91063175 17.5967518,3.24345141 18.9659921,4.99999999 C17.5886974,6.75654857 15.5428913,8.0893683 13.1265848,8.72110951 C14.2622489,7.84283522 15.0032494,6.50231135 15.0032494,4.99999999 C15.0032494,3.49768886 14.2622489,2.15716488 13.1265848,1.27889061 Z M10.0014952,3.04314342 C8.87388553,3.04314342 7.95568908,3.92141749 7.95568908,4.99999999 C7.95568908,6.07858249 8.87388553,6.95685678 10.0014952,6.95685678 C11.1210504,6.95685678 12.0473012,6.07858249 12.0473012,4.99999999 C12.0473012,3.92141749 11.1210504,3.04314342 10.0014952,3.04314342 Z M10.0014952,3.91371335 C10.6297348,3.91371335 11.1371591,4.39137144 11.1371591,4.99999999 C11.1371591,5.60092462 10.6297348,6.08628664 10.0014952,6.08628664 C9.36520111,6.08628664 8.86583119,5.60092462 8.86583119,4.99999999 C8.86583119,4.39137144 9.36520111,3.91371335 10.0014952,3.91371335 Z" id="Shape"></path>
            </g>
        </g>
    </g>
</svg>