<?xml version="1.0" encoding="UTF-8"?>
<svg width="40px" height="39px" viewBox="0 0 40 39" version="1.1" xmlns="http://www.w3.org/2000/svg" xmlns:xlink="http://www.w3.org/1999/xlink">
    <!-- Generator: Sketch 46.2 (44496) - http://www.bohemiancoding.com/sketch -->
    <title>Group 21</title>
    <desc>Created with Sketch.</desc>
    <defs></defs>
    <g id="Page-1" stroke="none" stroke-width="1" fill="none" fill-rule="evenodd">
        <g id="Group-21" fill="#EC0000">
            <path d="M5.38461538,24.6153846 C2.41077442,24.6153846 0,22.2046102 0,19.2307692 C0,16.2569283 2.41077442,13.8461538 5.38461538,13.8461538 C8.35845635,13.8461538 10.7692308,16.2569283 10.7692308,19.2307692 C10.7692308,22.2046102 8.35845635,24.6153846 5.38461538,24.6153846 Z M5.38461538,21.9230769 C6.87153586,21.9230769 8.07692308,20.7176897 8.07692308,19.2307692 C8.07692308,17.7438488 6.87153586,16.5384615 5.38461538,16.5384615 C3.8976949,16.5384615 2.69230769,17.7438488 2.69230769,19.2307692 C2.69230769,20.7176897 3.8976949,21.9230769 5.38461538,21.9230769 Z" id="Combined-Shape"></path>
            <path d="M5.38461538,10.7692308 C2.41077442,10.7692308 0,8.35845635 0,5.38461538 C0,2.41077442 2.41077442,0 5.38461538,0 C8.35845635,0 10.7692308,2.41077442 10.7692308,5.38461538 C10.7692308,8.35845635 8.35845635,10.7692308 5.38461538,10.7692308 Z M5.38461538,8.07692308 C6.87153586,8.07692308 8.07692308,6.87153586 8.07692308,5.38461538 C8.07692308,3.8976949 6.87153586,2.69230769 5.38461538,2.69230769 C3.8976949,2.69230769 2.69230769,3.8976949 2.69230769,5.38461538 C2.69230769,6.87153586 3.8976949,8.07692308 5.38461538,8.07692308 Z" id="Combined-Shape-Copy-4"></path>
            <path d="M5.38461538,38.4615385 C2.41077442,38.4615385 0,36.050764 0,33.0769231 C0,30.1030821 2.41077442,27.6923077 5.38461538,27.6923077 C8.35845635,27.6923077 10.7692308,30.1030821 10.7692308,33.0769231 C10.7692308,36.050764 8.35845635,38.4615385 5.38461538,38.4615385 Z M5.38461538,35.7692308 C6.87153586,35.7692308 8.07692308,34.5638436 8.07692308,33.0769231 C8.07692308,31.5900026 6.87153586,30.3846154 5.38461538,30.3846154 C3.8976949,30.3846154 2.69230769,31.5900026 2.69230769,33.0769231 C2.69230769,34.5638436 3.8976949,35.7692308 5.38461538,35.7692308 Z" id="Combined-Shape-Copy-3"></path>
            <polygon id="Path" points="13.8461538 20 40 20 40 16.9230769 13.8461538 16.9230769"></polygon>
            <polygon id="Path-Copy-2" points="13.8461538 6.15384615 40 6.15384615 40 3.07692308 13.8461538 3.07692308"></polygon>
            <polygon id="Path-Copy" points="13.8461538 33.8461538 40 33.8461538 40 30.7692308 13.8461538 30.7692308"></polygon>
        </g>
    </g>
</svg>