<?xml version="1.0" encoding="UTF-8"?>
<svg width="38px" height="40px" viewBox="0 0 38 40" version="1.1" xmlns="http://www.w3.org/2000/svg" xmlns:xlink="http://www.w3.org/1999/xlink">
    <!-- Generator: Sketch 47.1 (45422) - http://www.bohemiancoding.com/sketch -->
    <title>Page 1</title>
    <desc>Created with Sketch.</desc>
    <defs>
        <path d="M8.19,0.718 L11.984,0.057 L18.593,1.967 L25.015,8.436 L25.328,8.754 L26.891,8.229 C26.558,8.017 35.457,5.907 34.654,6.939 C35.591,7.367 36.397,8.097 36.884,9.076 L37.823,10.972 C38.207,11.742 37.947,12.678 37.229,13.139 L28.593,18.677 C27.229,19.55 25.645,19.995 24.09,20 L24.025,20 C23.087,19.995 22.161,19.83 21.301,19.502 L8.105,15.829 L1.666,15.829 C0.745,15.829 0,15.077 0,14.15 L0,2.396 C0,1.469 0.745,0.718 1.666,0.718 L8.19,0.718 Z M22.33,16.312 C22.898,16.528 23.496,16.635 24.092,16.635 C25.043,16.635 25.989,16.365 26.805,15.842 L34.171,11.119 L33.902,10.578 C33.619,10.01 32.951,9.732 32.353,9.932 L25.405,12.266 C24.807,12.467 24.145,12.31 23.7,11.861 L22.658,10.811 C21.618,9.763 19.804,9.765 18.766,10.811 L16.41,8.437 C17.1,7.742 17.938,7.26 18.841,6.966 L16.236,4.34 C15.41,3.507 14.23,3.107 13.113,3.269 L9.999,3.81 L9.999,12.872 L22.33,16.312 Z M3.332,12.471 L6.665,12.471 L6.665,4.076 L3.332,4.076 L3.332,12.471 Z M28.317,1.547 C28.788,1.072 29.436,0.833 30.085,0.833 C30.732,0.833 31.379,1.071 31.851,1.547 C32.323,2.022 32.585,2.656 32.585,3.329 C32.585,4 32.323,4.634 31.851,5.108 C31.38,5.584 30.752,5.848 30.085,5.848 C29.417,5.848 28.789,5.585 28.317,5.11 C27.846,4.634 27.586,4 27.586,3.329 C27.586,2.656 27.846,2.022 28.317,1.547 Z" id="path-1"></path>
        <path d="M0.796,3 C0.796,4.657 2.574,6 4.766,6 C6.958,6 8.735,4.657 8.735,3 C8.735,1.343 6.958,0 4.766,0 C2.574,0 0.796,1.343 0.796,3 Z" id="path-3"></path>
        <path d="M2.637,7.407 L0,7.407 L0,11.111 L1.891,11.111 C1.87,11.417 1.852,11.724 1.852,12.038 C1.852,12.35 1.87,12.656 1.891,12.963 L0,12.963 L0,16.666 L2.637,16.666 C4.176,21.012 7.81,24.074 12.037,24.074 C15.165,24.074 18.068,22.426 20,19.552 L16.926,17.485 C15.692,19.318 13.911,20.37 12.037,20.37 C9.795,20.37 7.816,18.896 6.652,16.666 L12.963,16.666 L12.963,12.963 L5.628,12.963 C5.601,12.654 5.555,12.353 5.555,12.038 C5.555,11.72 5.601,11.418 5.628,11.111 L12.963,11.111 L12.963,7.407 L6.652,7.407 C7.816,5.176 9.795,3.704 12.037,3.704 C13.911,3.704 15.692,4.756 16.926,6.589 L20,4.522 C18.068,1.648 15.165,0 12.037,0 C7.81,0 4.176,3.061 2.637,7.407 Z" id="path-5"></path>
    </defs>
    <g id="Page-1" stroke="none" stroke-width="1" fill="none" fill-rule="evenodd">
        <g id="UI-Kit-DESIGN-ELEMENTS---Icons" transform="translate(-1583.000000, -2622.000000)">
            <g id="Page-1" transform="translate(1583.000000, 2622.000000)">
                <g id="Group-3" transform="translate(0.000000, 20.000000)">
                    <mask id="mask-2" fill="white">
                        <use xlink:href="#path-1"></use>
                    </mask>
                    <g id="Clip-2"></g>
                    <polygon id="Fill-1" fill="#EC0000" mask="url(#mask-2)" points="-5 25 43 25 43 -4.943 -5 -4.943"></polygon>
                </g>
                <g id="Group-6" transform="translate(26.000000, 20.000000)">
                    <mask id="mask-4" fill="white">
                        <use xlink:href="#path-3"></use>
                    </mask>
                    <g id="Clip-5"></g>
                    <polygon id="Fill-4" fill="#FFFFFF" mask="url(#mask-4)" points="-4.204 11 13.735 11 13.735 -5 -4.204 -5"></polygon>
                </g>
                <g id="Group-9" transform="translate(17.000000, 0.000000)">
                    <mask id="mask-6" fill="white">
                        <use xlink:href="#path-5"></use>
                    </mask>
                    <g id="Clip-8"></g>
                    <polygon id="Fill-7" fill="#EC0000" mask="url(#mask-6)" points="-5 29.074 25 29.074 25 -5 -5 -5"></polygon>
                </g>
            </g>
        </g>
    </g>
</svg>