<?xml version="1.0" encoding="UTF-8"?>
<svg width="40px" height="40px" viewBox="0 0 40 40" version="1.1" xmlns="http://www.w3.org/2000/svg" xmlns:xlink="http://www.w3.org/1999/xlink">
    <!-- Generator: Sketch 47.1 (45422) - http://www.bohemiancoding.com/sketch -->
    <title>Group 27</title>
    <desc>Created with Sketch.</desc>
    <defs></defs>
    <g id="Page-1" stroke="none" stroke-width="1" fill="none" fill-rule="evenodd">
        <g id="UI-Kit-DESIGN-ELEMENTS---Icons" transform="translate(-2198.000000, -642.000000)" fill="#EC0000">
            <g id="Group-27" transform="translate(2198.000000, 642.000000)">
                <path d="M8.53047619,6.62571429 L11.5942857,6.62571429 L11.5942857,1.9047619 L8.53047619,1.9047619 L8.53047619,6.62571429 Z M28.4057143,6.62571429 L31.4695238,6.62571429 L31.4695238,1.9047619 L28.4057143,1.9047619 L28.4057143,6.62571429 Z M1.9047619,13.2504762 L38.0952381,13.2504762 L38.0952381,5.21714286 L33.3742857,5.21714286 L33.3742857,7.57809524 C33.3742857,8.10380952 32.9485714,8.53047619 32.4219048,8.53047619 L27.4533333,8.53047619 C26.9266667,8.53047619 26.5009524,8.10380952 26.5009524,7.57809524 L26.5009524,5.21714286 L13.4990476,5.21714286 L13.4990476,7.57809524 C13.4990476,8.10380952 13.072381,8.53047619 12.5466667,8.53047619 L7.57809524,8.53047619 C7.05142857,8.53047619 6.62571429,8.10380952 6.62571429,7.57809524 L6.62571429,5.21714286 L1.9047619,5.21714286 L1.9047619,13.2504762 Z M1.9047619,38.0952381 L38.0952381,38.0952381 L38.0952381,15.1552381 L1.9047619,15.1552381 L1.9047619,38.0952381 Z M39.047619,40 L0.952380952,40 C0.426666667,40 0,39.5742857 0,39.047619 L0,4.2647619 C0,3.73904762 0.426666667,3.31238095 0.952380952,3.31238095 L6.62571429,3.31238095 L6.62571429,0.952380952 C6.62571429,0.426666667 7.05142857,0 7.57809524,0 L12.5466667,0 C13.072381,0 13.4990476,0.426666667 13.4990476,0.952380952 L13.4990476,3.31238095 L26.5009524,3.31238095 L26.5009524,0.952380952 C26.5009524,0.426666667 26.9266667,0 27.4533333,0 L32.4219048,0 C32.9485714,0 33.3742857,0.426666667 33.3742857,0.952380952 L33.3742857,3.31238095 L39.047619,3.31238095 C39.5742857,3.31238095 40,3.73904762 40,4.2647619 L40,39.047619 C40,39.5742857 39.5742857,40 39.047619,40 L39.047619,40 Z" id="Page-1"></path>
            </g>
        </g>
    </g>
</svg>