<?xml version="1.0" encoding="UTF-8"?>
<svg width="40px" height="40px" viewBox="0 0 40 40" version="1.1" xmlns="http://www.w3.org/2000/svg" xmlns:xlink="http://www.w3.org/1999/xlink">
    <!-- Generator: Sketch 47.1 (45422) - http://www.bohemiancoding.com/sketch -->
    <title>Page 1</title>
    <desc>Created with Sketch.</desc>
    <defs></defs>
    <g id="Page-1" stroke="none" stroke-width="1" fill="none" fill-rule="evenodd">
        <g id="UI-Kit-DESIGN-ELEMENTS---Icons" transform="translate(-998.000000, -800.000000)" fill="#EC0000">
            <g id="Page-1" transform="translate(998.000000, 800.000000)">
                <path d="M16.8726667,1.9047619 C8.61933333,1.9047619 1.90504762,8.61904762 1.90504762,16.872381 C1.90504762,25.1257143 8.61933333,31.8409524 16.8726667,31.8409524 C25.126,31.8409524 31.8402857,25.1257143 31.8402857,16.872381 C31.8402857,8.61904762 25.126,1.9047619 16.8726667,1.9047619 M16.8726667,33.7457143 C7.56885714,33.7457143 0.000285714286,26.1761905 0.000285714286,16.872381 C0.000285714286,7.56857143 7.56885714,0 16.8726667,0 C26.1764762,0 33.7450476,7.56857143 33.7450476,16.872381 C33.7450476,26.1761905 26.1764762,33.7457143 16.8726667,33.7457143" id="Fill-1"></path>
                <polygon id="Fill-3" points="38.3584762 39.6920952 29.8841905 31.3778095 31.2175238 30.0178095 39.6918095 38.3320952"></polygon>
            </g>
        </g>
    </g>
</svg>