<?xml version="1.0" encoding="UTF-8"?>
<svg width="44px" height="46px" viewBox="0 0 44 46" version="1.1" xmlns="http://www.w3.org/2000/svg" xmlns:xlink="http://www.w3.org/1999/xlink">
    <!-- Generator: Sketch 46.2 (44496) - http://www.bohemiancoding.com/sketch -->
    <title>Group 4</title>
    <desc>Created with Sketch.</desc>
    <defs>
        <path d="M36.9227692,32.9884794 C36.9130733,33.6791875 36.6747351,34.3138385 36.28,34.8230769 C36.2907692,35.2292308 36.1446154,35.6384615 35.84,35.9430769 L32.6738462,39.1092308 C32.0784615,39.7046154 31.1123077,39.7030769 30.5092308,39.1015385 L27.4415385,36.0338462 C27.4369231,36.0276923 27.4307692,36.0230769 27.4246154,36.0153846 L26.9846154,36.0153846 L23.8907692,39.1092308 C23.2969231,39.7046154 22.3307692,39.7030769 21.7276923,39.1015385 L18.66,36.0338462 C18.6553846,36.0276923 18.6492308,36.0230769 18.6430769,36.0153846 L18.2030769,36.0153846 L15.1092308,39.1092308 C14.5138462,39.7046154 13.5492308,39.7030769 12.9476923,39.1015385 L9.88,36.0338462 C9.87384615,36.0276923 9.86769231,36.0230769 9.86153846,36.0153846 L9.42153846,36.0153846 L6.32769231,39.1092308 C5.73230769,39.7046154 4.76615385,39.7030769 4.16615385,39.1015385 L1.09846154,36.0338462 C0.770769231,35.7061538 0.623076923,35.2661538 0.650769231,34.8384615 C0.243076923,34.3169231 0,33.6615385 0,32.9446154 L0,3.07076923 C0,1.37384615 1.38153846,0 3.08461538,0 L33.8384615,0 C35.5268482,0 36.8992194,1.34419938 36.9227692,3.02677392 L36.9227692,32.9884794 L36.9227692,32.9884794 Z" id="path-1"></path>
        <path d="M30.7689231,39.1423256 C30.7592272,39.8330336 30.520889,40.4676847 30.1261538,40.9769231 C30.1369231,41.3830769 29.9907692,41.7923077 29.6861538,42.0969231 L26.52,45.2630769 C25.9246154,45.8584615 24.9584615,45.8569231 24.3553846,45.2553846 L21.2876923,42.1876923 C21.2830769,42.1815385 21.2769231,42.1769231 21.2707692,42.1692308 L20.8307692,42.1692308 L17.7369231,45.2630769 C17.1430769,45.8584615 16.1769231,45.8569231 15.5738462,45.2553846 L12.5061538,42.1876923 C12.5015385,42.1815385 12.4953846,42.1769231 12.4892308,42.1692308 L12.0492308,42.1692308 L8.95538462,45.2630769 C8.36,45.8584615 7.39538462,45.8569231 6.79384615,45.2553846 L3.72615385,42.1876923 C3.72,42.1815385 3.71384615,42.1769231 3.70769231,42.1692308 L3.26769231,42.1692308 L0.173846154,45.2630769 C-0.421538462,45.8584615 -1.38769231,45.8569231 -1.98769231,45.2553846 L-5.05538462,42.1876923 C-5.38307692,41.86 -5.53076923,41.42 -5.50307692,40.9923077 C-5.91076923,40.4707692 -6.15384615,39.8153846 -6.15384615,39.0984615 L-6.15384615,9.22461538 C-6.15384615,7.52769231 -4.77230769,6.15384615 -3.06923077,6.15384615 L27.6846154,6.15384615 C29.373002,6.15384615 30.7453733,7.49804554 30.7689231,9.18062007 L30.7689231,39.1423256 L30.7689231,39.1423256 Z" id="path-3"></path>
    </defs>
    <g id="Page-1" stroke="none" stroke-width="1" fill="none" fill-rule="evenodd">
        <g id="Group-4" transform="translate(7.000000, 0.000000)">
            <mask id="mask-2" fill="white">
                <use xlink:href="#path-1"></use>
            </mask>
            <g id="Clip-2"></g>
            <path d="M0.652,34.8376923 C0.242769231,34.3176923 -0.000307692308,33.6607692 -0.000307692308,32.9453846 L-0.000307692308,3.07153846 C-0.000307692308,1.37461538 1.38123077,-0.000769230769 3.08430769,-0.000769230769 L33.8381538,-0.000769230769 C35.5427692,-0.000769230769 36.9227692,1.36846154 36.9227692,3.07153846 L36.9227692,32.9453846 C36.9227692,33.6515385 36.6827692,34.3038462 36.2796923,34.8223077 C36.292,35.2284615 36.1443077,35.6392308 35.8396923,35.9423077 L32.672,39.11 C32.0781538,39.7053846 31.112,39.7038462 30.5089231,39.1007692 L27.4412308,36.0330769 C27.4366154,36.0269231 26.9843077,36.0161538 26.9843077,36.0161538 L23.8904615,39.11 C23.2966154,39.7053846 22.3304615,39.7038462 21.7273846,39.1007692 L18.6596923,36.0330769 C18.6550769,36.0269231 18.2027692,36.0161538 18.2027692,36.0161538 L15.1089231,39.11 C14.5150769,39.7053846 13.5489231,39.7038462 12.9473846,39.1007692 L9.87969231,36.0330769 C9.87353846,36.0269231 9.42123077,36.0161538 9.42123077,36.0161538 L6.32738462,39.11 C5.73353846,39.7053846 4.76738462,39.7038462 4.16584615,39.1007692 L1.09815385,36.0330769 C0.770461538,35.7053846 0.622769231,35.2653846 0.652,34.8376923 Z" id="Stroke-1" stroke="#EC0000" stroke-width="4" stroke-linecap="round" stroke-linejoin="round" mask="url(#mask-2)"></path>
            <mask id="mask-4" fill="white">
                <use xlink:href="#path-3"></use>
            </mask>
            <g id="Clip-2"></g>
            <path d="M-5.50184615,40.9915385 C-5.91107692,40.4715385 -6.15415385,39.8146154 -6.15415385,39.0992308 L-6.15415385,9.22538462 C-6.15415385,7.52846154 -4.77261538,6.15307692 -3.06953846,6.15307692 L27.6843077,6.15307692 C29.3889231,6.15307692 30.7689231,7.52230769 30.7689231,9.22538462 L30.7689231,39.0992308 C30.7689231,39.8053846 30.5289231,40.4576923 30.1258462,40.9761538 C30.1381538,41.3823077 29.9904615,41.7930769 29.6858462,42.0961538 L26.5181538,45.2638462 C25.9243077,45.8592308 24.9581538,45.8576923 24.3550769,45.2546154 L21.2873846,42.1869231 C21.2827692,42.1807692 20.8304615,42.17 20.8304615,42.17 L17.7366154,45.2638462 C17.1427692,45.8592308 16.1766154,45.8576923 15.5735385,45.2546154 L12.5058462,42.1869231 C12.5012308,42.1807692 12.0489231,42.17 12.0489231,42.17 L8.95507692,45.2638462 C8.36123077,45.8592308 7.39507692,45.8576923 6.79353846,45.2546154 L3.72584615,42.1869231 C3.71969231,42.1807692 3.26738462,42.17 3.26738462,42.17 L0.173538462,45.2638462 C-0.420307692,45.8592308 -1.38646154,45.8576923 -1.988,45.2546154 L-5.05569231,42.1869231 C-5.38338462,41.8592308 -5.53107692,41.4192308 -5.50184615,40.9915385 Z" id="Stroke-1" stroke="#EC0000" stroke-width="4" fill="#FFFFFF" stroke-linecap="round" stroke-linejoin="round" mask="url(#mask-4)"></path>
        </g>
    </g>
</svg>