<?xml version="1.0" encoding="UTF-8"?>
<svg width="37px" height="40px" viewBox="0 0 37 40" version="1.1" xmlns="http://www.w3.org/2000/svg" xmlns:xlink="http://www.w3.org/1999/xlink">
    <!-- Generator: Sketch 47.1 (45422) - http://www.bohemiancoding.com/sketch -->
    <title>Group 20</title>
    <desc>Created with Sketch.</desc>
    <defs>
        <path d="M2.46204082,6.3629932 L0.198095238,6.3629932 L0.198095238,9.5444898 L1.82204082,9.5444898 C1.80462585,9.80680272 1.78829932,10.0712925 1.78829932,10.3401361 C1.78829932,10.6089796 1.80462585,10.8712925 1.82204082,11.1357823 L0.198095238,11.1357823 L0.198095238,14.3183673 L2.46204082,14.3183673 C3.7844898,18.0506122 6.90612245,20.6802721 10.5382313,20.6802721 C13.2255782,20.6802721 15.7180952,19.2642177 17.3779592,16.7956463 L14.737415,15.0204082 C13.6783673,16.5953741 12.1491156,17.4987755 10.5382313,17.4987755 C8.61278912,17.4987755 6.91265306,16.2318367 5.91129252,14.3183673 L11.3327891,14.3183673 L11.3327891,11.1357823 L5.03183673,11.1357823 C5.00897959,10.8702041 4.96979592,10.6122449 4.96979592,10.3401361 C4.96979592,10.0680272 5.00897959,9.80897959 5.03183673,9.5444898 L11.3327891,9.5444898 L11.3327891,6.3629932 L5.91129252,6.3629932 C6.91265306,4.4462585 8.61278912,3.1814966 10.5382313,3.1814966 C12.1491156,3.1814966 13.6783673,4.08489796 14.737415,5.66095238 L17.3779592,3.88462585 C15.7180952,1.41605442 13.2255782,0 10.5382313,0 C6.90612245,0 3.7844898,2.62965986 2.46204082,6.3629932 Z" id="path-1"></path>
    </defs>
    <g id="Page-1" stroke="none" stroke-width="1" fill="none" fill-rule="evenodd">
        <g id="UI-Kit-DESIGN-ELEMENTS---Icons" transform="translate(-760.000000, -2924.000000)">
            <g id="Group-20" transform="translate(760.000000, 2924.000000)">
                <path d="M27.1746939,34.4153469 L29.9937415,37.2343946 C30.0753741,37.3160272 30.1646259,37.3334422 30.2255782,37.3334422 C30.2821769,37.3334422 30.3670748,37.3171156 30.44,37.2441905 L33.3526531,34.3326259 C33.4331973,34.2520816 33.4397279,34.1475918 33.437551,34.1073197 C33.429932,33.8537143 33.5104762,33.605551 33.6661224,33.4052789 C33.9034014,33.100517 34.0285714,32.7348027 34.0285714,32.3484082 L34.0285714,4.9002449 C34.0285714,3.9435102 33.244898,3.16527891 32.2816327,3.16527891 L4.02585034,3.16527891 C3.06367347,3.16527891 2.28,3.9435102 2.28,4.9002449 L2.28,32.3484082 C2.28,32.7413333 2.4062585,33.1092245 2.64571429,33.412898 C2.81333333,33.6251429 2.89496599,33.892898 2.87646259,34.1617415 C2.87319728,34.2172517 2.87972789,34.3250068 2.97006803,34.4142585 L5.78911565,37.2343946 C5.94802721,37.3933061 6.08408163,37.3943946 6.23428571,37.2441905 L9.07836735,34.4001088 C9.2829932,34.1965714 9.55945578,34.0811973 9.84789116,34.0811973 L10.2527891,34.0811973 C10.5412245,34.0811973 10.8176871,34.1965714 11.0223129,34.4001088 L13.8576871,37.2343946 C13.9393197,37.3160272 14.027483,37.3334422 14.0884354,37.3334422 C14.145034,37.3334422 14.229932,37.3171156 14.3039456,37.2441905 L17.1469388,34.4001088 C17.3515646,34.1965714 17.6280272,34.0811973 17.9164626,34.0811973 L18.3202721,34.0811973 C18.574966,34.0811973 18.8220408,34.1715374 19.0179592,34.3348027 C19.0462585,34.3576599 19.0767347,34.3859592 19.1061224,34.4153469 L21.9251701,37.2343946 C22.0068027,37.3160272 22.0960544,37.3334422 22.1570068,37.3334422 C22.2136054,37.3334422 22.2985034,37.3171156 22.3714286,37.2441905 L25.2155102,34.4001088 C25.4201361,34.1965714 25.6965986,34.0811973 25.985034,34.0811973 L26.3888435,34.0811973 C26.6783673,34.0811973 26.9548299,34.1965714 27.1583673,34.4001088 C27.1638095,34.4044626 27.1681633,34.4099048 27.1736054,34.4164354 L27.1746939,34.4153469 Z M30.2255782,39.5103129 C29.5561905,39.5103129 28.9281633,39.248 28.4536054,38.7723537 L26.187483,36.5073197 L23.9115646,38.7821497 C23.4446259,39.2501769 22.8220408,39.5103129 22.1580952,39.5103129 L22.1570068,39.5103129 C21.487619,39.5103129 20.8595918,39.248 20.385034,38.7723537 L18.1189116,36.5073197 L15.8440816,38.7821497 C15.3760544,39.2501769 14.752381,39.5103129 14.0884354,39.5103129 L14.0873469,39.5103129 C13.4190476,39.5103129 12.789932,39.2469116 12.3164626,38.7723537 L10.0514286,36.5062313 L7.77442177,38.7821497 C6.83727891,39.7214694 5.19265306,39.7192925 4.24789116,38.7723537 L1.43102041,35.9543946 C1.02285714,35.5473197 0.771428571,35.012898 0.712653061,34.4447347 C0.31755102,33.8243265 0.103129252,33.0918095 0.103129252,32.3484082 L0.103129252,4.9002449 C0.103129252,2.74296599 1.86312925,0.988408163 4.02585034,0.988408163 L32.2816327,0.988408163 C34.4454422,0.988408163 36.2054422,2.74296599 36.2054422,4.9002449 L36.2054422,32.3484082 C36.2054422,33.0896327 35.989932,33.8221497 35.5926531,34.4458231 C35.5219048,34.9835102 35.2748299,35.4885442 34.8906122,35.8727619 L31.9801361,38.7821497 C31.5131973,39.2501769 30.8906122,39.5103129 30.2266667,39.5103129 L30.2255782,39.5103129 Z" id="Fill-1" fill="#EC0000"></path>
                <g id="Group-9" transform="translate(9.503401, 7.619048)">
                    <mask id="mask-2" fill="white">
                        <use xlink:href="#path-1"></use>
                    </mask>
                    <g id="Clip-8"></g>
                    <polygon id="Fill-7" fill="#EC0000" mask="url(#mask-2)" points="-5.24408163 26.122449 22.8201361 26.122449 22.8201361 -5.44217687 -5.24408163 -5.44217687"></polygon>
                </g>
            </g>
        </g>
    </g>
</svg>