<?xml version="1.0" encoding="UTF-8"?>
<svg width="33px" height="40px" viewBox="0 0 33 40" version="1.1" xmlns="http://www.w3.org/2000/svg" xmlns:xlink="http://www.w3.org/1999/xlink">
    <!-- Generator: Sketch 47.1 (45422) - http://www.bohemiancoding.com/sketch -->
    <title>Group 6 Copy</title>
    <desc>Created with Sketch.</desc>
    <defs>
        <path d="M4.58146341,12.0078049 L0.308292683,12.0078049 L0.308292683,18.0117073 L3.37170732,18.0117073 C3.3404878,18.5073171 3.30926829,19.004878 3.30926829,19.5121951 C3.30926829,20.0195122 3.3404878,20.515122 3.37170732,21.0126829 L0.308292683,21.0126829 L0.308292683,27.0146341 L4.58146341,27.0146341 C7.07707317,34.062439 12.9678049,39.0243902 19.822439,39.0243902 C24.8897561,39.0243902 29.5980488,36.3531707 32.7297561,31.6936585 L27.7443902,28.3453659 C25.7443902,31.315122 22.8585366,33.0204878 19.822439,33.0204878 C16.1853659,33.0204878 12.977561,30.6321951 11.0907317,27.0146341 L21.3209756,27.0146341 L21.3209756,21.0126829 L9.4302439,21.0126829 C9.38926829,20.5131707 9.31317073,20.0234146 9.31317073,19.5121951 C9.31317073,18.9990244 9.38926829,18.5112195 9.4302439,18.0117073 L21.3209756,18.0117073 L21.3209756,12.0078049 L11.0907317,12.0078049 C12.977561,8.3902439 16.1853659,6.00390244 19.822439,6.00390244 C22.8585366,6.00390244 25.7443902,7.70926829 27.7443902,10.6809756 L32.7297561,7.32878049 C29.5980488,2.67121951 24.8897561,0 19.822439,0 C12.9678049,0 7.07707317,4.96195122 4.58146341,12.0078049 Z" id="path-1"></path>
    </defs>
    <g id="Page-1" stroke="none" stroke-width="1" fill="none" fill-rule="evenodd">
        <g id="UI-Kit-DESIGN-ELEMENTS---Icons" transform="translate(-1361.000000, -3068.000000)">
            <g id="Group-6-Copy" transform="translate(1361.000000, 3068.000000)">
                <mask id="mask-2" fill="white">
                    <use xlink:href="#path-1"></use>
                </mask>
                <g id="Clip-5"></g>
                <polygon id="Fill-4" fill="#EC0000" mask="url(#mask-2)" points="-9.44780488 48.7804878 42.4858537 48.7804878 42.4858537 -9.75609756 -9.44780488 -9.75609756"></polygon>
            </g>
        </g>
    </g>
</svg>