<?xml version="1.0" encoding="UTF-8"?>
<svg width="42px" height="39px" viewBox="0 0 42 39" version="1.1" xmlns="http://www.w3.org/2000/svg" xmlns:xlink="http://www.w3.org/1999/xlink">
    <!-- Generator: Sketch 44.1 (41455) - http://www.bohemiancoding.com/sketch -->
    <title>mensaje_ok</title>
    <desc>Created with Sketch.</desc>
    <defs></defs>
    <g id="Symbols" stroke="none" stroke-width="1" fill="none" fill-rule="evenodd">
        <g id="LIGHTBOX-&quot;OK&quot;" transform="translate(-212.000000, -28.000000)" fill="#1DA13D">
            <g id="mensaje_ok" transform="translate(211.710843, 28.000000)">
                <g id="Group">
                    <path d="M40.4672865,0.168043012 C40.2544894,0.198760914 40.0587447,0.302493719 39.9131199,0.461717711 C34.8543505,5.79095024 23.0648423,18.5223217 17.6589523,24.234694 L10.4110356,17.7885249 C10.1611371,17.5642265 9.81120529,17.4915776 9.49357148,17.5980516 C9.17593767,17.7045255 8.93908321,17.9738707 8.87257769,18.3042308 C8.80607216,18.634591 8.9200665,18.9755422 9.17145227,19.1981494 L17.1047856,26.2463892 C17.4821898,26.5829324 18.0568033,26.5569292 18.4027023,26.1876542 C23.6014903,20.7110205 36.0977419,7.20199843 41.2693699,1.75388639 C41.5481996,1.46551701 41.6137292,1.03039598 41.4323391,0.671759473 C41.2509489,0.31312297 40.8629033,0.110579605 40.4672865,0.168043012 L40.4672865,0.168043012 Z M19.3360356,1.12250928 C17.0409316,1.09572614 14.7347396,1.49986952 12.5256189,2.34123578 C2.8955836,6.00892735 -1.96697114,16.8730587 1.67561884,26.5694313 C5.31824627,36.2657711 16.1080789,41.1617747 25.7381189,37.4941301 C35.3681552,33.8264386 40.2161265,22.9623072 36.5735365,13.2659346 C36.4740365,12.9261678 36.1932596,12.6715909 35.84727,12.6074377 C35.5012804,12.5432845 35.1488562,12.6804536 34.9356781,12.9622438 C34.7225001,13.2440339 34.6847838,13.6225735 34.8381199,13.9413864 C38.1237845,22.6876627 33.7537452,32.4237542 25.0672856,35.7320819 C16.3808316,39.0403627 6.69670493,34.6402229 3.4110356,25.8939795 C0.125366173,17.1477033 4.49541027,7.41161169 13.1818689,4.10328398 C18.4856803,2.08331892 24.4380603,2.88244301 29.0193689,6.24710928 C29.4342371,6.5159916 29.9851928,6.4141332 30.2781337,6.01439407 C30.5710746,5.61465493 30.5052315,5.05454215 30.1277023,4.73470807 C26.9473829,2.39898398 23.1611669,1.16705386 19.3360356,1.12250928 L19.3360356,1.12250928 Z" id="Shape" fill-rule="nonzero"></path>
                </g>
            </g>
        </g>
    </g>
</svg>