<?xml version="1.0" encoding="UTF-8"?>
<svg width="190px" height="35px" viewBox="0 0 190 35" version="1.1" xmlns="http://www.w3.org/2000/svg" xmlns:xlink="http://www.w3.org/1999/xlink">
    <!-- Generator: Sketch 45.2 (43514) - http://www.bohemiancoding.com/sketch -->
    <title>logo Santander</title>
    <desc>Created with Sketch.</desc>
    <defs>
        <polyline id="path-1" points="0 35 189.863408 35 189.863408 0.4648 0 0.4648"></polyline>
    </defs>
    <g id="Page-1" stroke="none" stroke-width="1" fill="none" fill-rule="evenodd">
        <g id="iPhone-7" transform="translate(-11.000000, -11.000000)">
            <g id="logo-Santander" transform="translate(11.000000, 11.000000)">
                <g id="Group-3">
                    <g id="Fill-1-Clipped">
                        <mask id="mask-2" fill="white">
                            <use xlink:href="#path-1"></use>
                        </mask>
                        <g id="path-1"></g>
                        <path d="M19.4609993,2.11166667 C19.4609993,6.33546667 26.5948376,11.0488 26.5948376,15.897 C26.5948376,15.897 26.5948376,16.3636667 26.4133505,16.8728 C33.0678768,18.2676667 37.795848,21.5856667 37.795848,25.4594667 C37.795848,30.6814667 29.372986,34.9561333 18.9304986,34.9794667 C18.8606959,35.0261333 18.7955467,34.9794667 18.7257439,34.9794667 C8.39959438,34.9794667 0,30.8448 0,25.669 C0,21.7961333 5.11886638,18.6368 11.2894271,16.9661333 C11.2894271,19.1034667 18.3348487,25.9023333 18.4930682,28.6421333 C18.4930682,28.6421333 18.5396033,28.8754667 18.5396033,29.127 C18.5396033,29.2674667 18.5396033,29.4074667 18.4930682,29.547 C20.0333816,28.7354667 20.0333816,26.2294667 20.0333816,26.2294667 C20.0333816,20.2841333 13.1927147,17.6376667 13.1927147,11.7908 C13.1927147,9.51813333 14.2490626,7.847 15.1890726,7.38033333 L15.1890726,9.02813333 C15.1890726,13.2514667 22.6021218,18.0114667 22.6021218,21.8894667 L22.6021218,23.1634667 C24.3239223,22.4914667 24.3239223,19.3088 24.3239223,19.3088 C24.3239223,13.9748 17.4413738,11.0021333 17.4413738,4.8748 C17.4413738,2.60213333 18.4930682,0.9268 19.4609993,0.4648 L19.4609993,2.11166667" id="Fill-1" fill="#EC0000" fill-rule="nonzero" mask="url(#mask-2)"></path>
                    </g>
                </g>
                <path d="M52.8453151,33.3508 C49.2434946,33.3508 46.6282192,32.3101333 46.6282192,32.3101333 L46.6282192,25.9961333 L47.5216941,25.9961333 C47.9823921,29.3374667 50.4813296,31.8896667 53.3758158,31.8896667 C56.242381,31.8896667 58.2620065,30.2661333 58.2620065,27.7363333 C58.2620065,25.0208 55.5769284,23.7888 53.7899786,22.8834667 L51.2165849,21.5856667 C48.7641826,20.3541333 46.7910922,18.3376667 46.7910922,15.5283333 C46.7910922,12.0241333 49.3598325,9.02813333 54.2925583,9.02813333 C57.6663565,9.02813333 60.4445049,10.1668 60.4445049,10.1668 L60.4445049,15.8041333 L59.5463766,15.8041333 C59.0205294,12.7894667 57.3685316,10.423 53.9947333,10.423 C51.4678747,10.423 50.0020175,12.1636667 50.0020175,13.9281333 C50.0020175,16.247 51.5842126,17.269 53.422351,18.221 L56.0143588,19.5188 C58.3550768,20.7274667 61.2681771,22.7248 61.2681771,26.1356667 C61.2681771,30.4761333 58.285274,33.3508 52.8453151,33.3508" id="Fill-4" fill="#EC0000" fill-rule="nonzero"></path>
                <path d="M68.127458,33.2154667 C65.8798103,33.2154667 64.4372207,31.7034667 64.4372207,29.477 C64.4372207,27.8768 65.5819854,26.621 68.127458,25.6928 L72.6041394,24.0688 L72.6041394,22.6543333 C72.6041394,20.5408 71.6408618,19.2434667 70.1936186,19.2434667 C69.1838059,19.2434667 68.1972608,19.7521333 67.7179487,20.5408 C67.5085405,20.8436667 67.4620054,21.2828 67.4620054,21.6094667 C67.4620054,22.1876667 67.8296331,22.8601333 67.8296331,22.8601333 L65.6517881,23.8588 C65.4004983,23.3968 65.0561382,22.701 65.0561382,21.9781333 C65.0561382,21.8661333 65.1026733,21.7261333 65.1026733,21.6094667 C65.2608929,20.4241333 66.2939732,19.6116667 67.6714136,18.7768 C69.0255864,17.9414667 70.1936186,17.7081333 71.0219443,17.7081333 C75.1728796,17.7081333 75.9081349,21.0494667 75.9081349,22.1648 L75.9081349,29.0803333 C75.9081349,30.1728 76.0012052,30.8681333 76.8946801,30.8681333 C77.1459699,30.8681333 77.3321105,30.8681333 77.6764706,30.7514667 L78.4768751,30.4761333 L78.4768751,31.4748 L73.8419743,33.2154667 C73.1532541,32.725 72.8321616,31.8201333 72.6972097,31.0543333 C71.5943266,31.9834667 69.7143066,33.2154667 68.127458,33.2154667 L68.127458,33.2154667 Z M69.4816309,26.4581333 C68.7929107,26.7614667 67.5783433,27.3396667 67.5783433,28.9408 C67.5783433,29.7994667 68.0623088,31.2181333 69.7794558,31.2181333 C70.6077815,31.2181333 71.7758137,30.7514667 72.6041394,30.0794667 L72.6041394,25.1374667 L69.4816309,26.4581333 L69.4816309,26.4581333 Z" id="Fill-5" fill="#EC0000" fill-rule="nonzero"></path>
                <path d="M79.5099555,32.8888 L79.5099555,32.0768 L80.5895709,31.8896667 C81.2550235,31.7501333 81.7157215,31.2414667 81.7157215,30.569 L81.7157215,21.6561333 C81.7157215,20.8908 81.3480938,20.4936667 80.6826412,20.4936667 C80.4499655,20.4936667 80.1986757,20.5174667 79.9241183,20.6103333 L79.5099555,20.7741333 L79.5099555,19.775 L84.2611942,17.7081333 L84.9499144,17.7081333 L84.9499144,20.1908 C86.4204251,18.5434667 88.1143045,17.7081333 89.6546179,17.7081333 C93.0284162,17.7081333 94.6338789,20.1488 94.6338789,23.0001333 L94.6338789,30.569 C94.6338789,31.2414667 95.1364585,31.773 95.8019111,31.8896667 L96.9047941,32.0768 L96.9047941,32.8888 L89.058968,32.8888 L89.058968,32.0768 L90.13393,31.8896667 C90.7993826,31.7501333 91.3298833,31.2414667 91.3298833,30.569 L91.3298833,23.023 C91.3298833,22.0248 91.0785935,19.775 88.416783,19.775 C86.9695398,19.775 85.7549724,20.6803333 85.0197171,21.3523333 L85.0197171,30.569 C85.0197171,31.2414667 85.5455643,31.7501333 86.2110169,31.8896667 L87.2906324,32.0768 L87.2906324,32.8888 L79.5099555,32.8888" id="Fill-6" fill="#EC0000" fill-rule="nonzero"></path>
                <path d="M108.310559,19.7521333 L103.698926,19.7521333 L103.698926,28.0396667 C103.698926,29.869 104.638936,30.8681333 106.039644,30.8681333 C106.588759,30.8681333 107.482233,30.7043333 108.310559,30.2428 L108.678187,31.0543333 L105.695284,32.9583333 C105.695284,32.9583333 105.118248,33.0521333 104.820423,33.0521333 C101.93059,33.0521333 100.39493,31.3581333 100.39493,27.7363333 L100.39493,19.7521333 L97.9844096,19.7521333 L97.9844096,18.9168 C97.9844096,18.9168 101.609498,17.5023333 103.033473,14.0634667 L103.698926,14.0634667 L103.698926,18.3148 L108.906209,18.3148 L108.310559,19.7521333" id="Fill-7" fill="#EC0000" fill-rule="nonzero"></path>
                <path d="M113.88547,33.2154667 C111.637822,33.2154667 110.190579,31.7034667 110.190579,29.477 C110.190579,27.8768 111.339997,26.621 113.88547,25.6928 L118.362151,24.0688 L118.362151,22.6543333 C118.362151,20.5408 117.398874,19.2434667 115.951631,19.2434667 C114.941818,19.2434667 113.955273,19.7521333 113.471307,20.5408 C113.266552,20.8436667 113.220017,21.2828 113.220017,21.6094667 C113.220017,22.1876667 113.587645,22.8601333 113.587645,22.8601333 L111.4098,23.8588 C111.153857,23.3968 110.809497,22.701 110.809497,21.9781333 C110.809497,21.8661333 110.856032,21.7261333 110.856032,21.6094667 C111.018905,20.4241333 112.051985,19.6116667 113.424772,18.7768 C114.778945,17.9414667 115.951631,17.7081333 116.775303,17.7081333 C120.930892,17.7081333 121.666147,21.0494667 121.666147,22.1648 L121.666147,29.0803333 C121.666147,30.1728 121.754564,30.8681333 122.652692,30.8681333 C122.903982,30.8681333 123.085469,30.8681333 123.429829,30.7514667 L124.234887,30.4761333 L124.234887,31.4748 L119.599986,33.2154667 C118.911266,32.725 118.590174,31.8201333 118.450568,31.0543333 C117.352339,31.9834667 115.467665,33.2154667 113.88547,33.2154667 L113.88547,33.2154667 Z M115.239643,26.4581333 C114.550923,26.7614667 113.336355,27.3396667 113.336355,28.9408 C113.336355,29.7994667 113.815667,31.2181333 115.537468,31.2181333 C116.365793,31.2181333 117.533826,30.7514667 118.362151,30.0794667 L118.362151,25.1374667 L115.239643,26.4581333 L115.239643,26.4581333 Z" id="Fill-8" fill="#EC0000" fill-rule="nonzero"></path>
                <path d="M125.267967,32.8888 L125.267967,32.0768 L126.347583,31.8896667 C127.013035,31.7501333 127.46908,31.2414667 127.46908,30.569 L127.46908,21.6561333 C127.46908,20.8908 127.101452,20.4936667 126.436,20.4936667 C126.207977,20.4936667 125.956688,20.5174667 125.68213,20.6103333 L125.267967,20.7741333 L125.267967,19.775 L130.019206,17.7081333 L130.707926,17.7081333 L130.707926,20.1908 C132.173783,18.5434667 133.872316,17.7081333 135.407976,17.7081333 C138.781775,17.7081333 140.391891,20.1488 140.391891,23.0001333 L140.391891,30.569 C140.391891,31.2414667 140.89447,31.773 141.559923,31.8896667 L142.662806,32.0768 L142.662806,32.8888 L134.812326,32.8888 L134.812326,32.0768 L135.891942,31.8896667 C136.557395,31.7501333 137.083242,31.2414667 137.083242,30.569 L137.083242,23.023 C137.083242,22.0248 136.831952,19.775 134.170141,19.775 C132.727552,19.775 131.508331,20.6803333 130.773076,21.3523333 L130.773076,30.569 C130.773076,31.2414667 131.303576,31.7501333 131.969029,31.8896667 L133.048644,32.0768 L133.048644,32.8888 L125.267967,32.8888" id="Fill-9" fill="#EC0000" fill-rule="nonzero"></path>
                <path d="M151.057747,33.2154667 C147.96316,33.2154667 144.221734,30.8681333 144.221734,25.7856667 C144.221734,21.3523333 147.618799,17.7081333 152.183898,17.7081333 C153.700943,17.7081333 154.799173,18.0114667 155.604231,18.3376667 L155.604231,10.6988 C155.604231,9.8868 155.166801,9.65813333 154.640953,9.65813333 C154.343128,9.65813333 153.998768,9.723 153.700943,9.8168 L153.058758,10.0501333 L153.058758,9.05146667 L158.196239,6.8488 L158.908227,6.8488 L158.908227,28.8754667 C158.908227,30.1494667 159.089714,30.8681333 159.987842,30.8681333 C160.262399,30.8681333 160.420619,30.8681333 160.788247,30.7514667 L161.570037,30.4761333 L161.570037,31.4748 L156.958404,33.2154667 C156.223148,32.725 155.855521,31.773 155.697301,31.0081333 C154.82244,31.9368 153.286781,33.2154667 151.057747,33.2154667 L151.057747,33.2154667 Z M152.551525,19.1034667 C150.164272,19.1034667 147.730484,20.6574667 147.730484,25.1374667 C147.730484,28.8754667 149.568622,31.1481333 152.481722,31.1481333 C154.226791,31.1481333 155.329674,30.1023333 155.604231,29.5708 L155.604231,20.8908 C155.166801,19.775 153.952233,19.1034667 152.551525,19.1034667 L152.551525,19.1034667 Z" id="Fill-10" fill="#EC0000" fill-rule="nonzero"></path>
                <path d="M166.386425,24.2554667 L166.386425,24.4188 C166.367811,28.8754667 168.866748,31.1014667 172.012524,31.1014667 C173.59472,31.1014667 175.060577,30.5228 176.209995,29.6174667 L176.209995,30.9376667 C174.87909,32.1934667 172.882732,33.2154667 170.402408,33.2154667 C165.24166,33.2154667 162.970745,29.3136667 162.970745,25.5994667 C162.970745,21.2594667 166.228205,17.7081333 170.448943,17.7081333 C173.93908,17.7081333 176.647425,20.1908 176.647425,23.8354667 L176.647425,24.2554667 L166.386425,24.2554667 L166.386425,24.2554667 Z M173.180557,22.8834667 L173.180557,22.8134667 C173.180557,20.3074667 171.779849,19.1034667 170.127851,19.1034667 C168.271099,19.1034667 166.893658,20.3541333 166.502763,22.8834667 L173.180557,22.8834667 L173.180557,22.8834667 Z" id="Fill-11" fill="#EC0000" fill-rule="nonzero"></path>
                <path d="M178.597248,32.8888 L178.597248,32.0768 L179.676864,31.8896667 C180.319049,31.7501333 180.798361,31.2414667 180.798361,30.569 L180.798361,21.6561333 C180.798361,20.8908 180.430733,20.4936667 179.788548,20.4936667 C179.537258,20.4936667 179.285968,20.5174667 179.011411,20.6103333 L178.597248,20.7741333 L178.597248,19.775 L183.278684,17.7081333 L183.967404,17.7081333 L183.967404,20.9603333 C185.158704,18.6134667 186.58268,17.6376667 188.21141,17.6376667 C189.519048,17.6376667 189.863408,17.9876667 189.863408,17.9876667 L189.863408,21.5161333 L189.197955,21.5161333 C189.035082,20.5874667 188.392897,20.125 187.406352,20.125 C186.354657,20.125 185.042366,20.4241333 184.102356,22.351 L184.102356,30.569 C184.102356,31.2414667 184.767809,31.773 185.386726,31.8896667 L186.973575,32.0768 L186.973575,32.8888 L178.597248,32.8888" id="Fill-12" fill="#EC0000" fill-rule="nonzero"></path>
            </g>
        </g>
    </g>
</svg>